<?xml version="1.0" encoding="UTF-8" standalone="no"?>
<svg
   xmlns:dc="http://purl.org/dc/elements/1.1/"
   xmlns:cc="http://creativecommons.org/ns#"
   xmlns:rdf="http://www.w3.org/1999/02/22-rdf-syntax-ns#"
   xmlns:svg="http://www.w3.org/2000/svg"
   xmlns="http://www.w3.org/2000/svg"
   id="svg8"
   version="1.1"
   viewBox="0 0 1000 1000"
   height="1000"
   width="1000">
  <defs
     id="defs2" />
  <metadata
     id="metadata5">
    <rdf:RDF>
      <cc:Work
         rdf:about="">
        <dc:format>image/svg+xml</dc:format>
        <dc:type
           rdf:resource="http://purl.org/dc/dcmitype/StillImage" />
        <dc:title></dc:title>
      </cc:Work>
    </rdf:RDF>
  </metadata>
  <g
     transform="translate(0,-122.51965)"
     id="layer1">
    <path
       id="path36"
       d="m 439.11796,136.51899 c -2.06265,-0.31681 -5.55394,5.39866 -9.8393,19.04776 -4.28536,13.649 -9.36492,35.23663 -13.01514,52.69378 -3.65014,17.45717 -5.87408,30.79192 -8.72991,37.61462 -2.85585,6.82271 -6.34545,7.1412 -12.37712,3.17344 -6.03168,-3.96771 -14.60269,-12.22138 -22.69733,-21.58556 -8.09445,-9.36417 -15.71292,-19.83751 -21.10941,-30.78921 -5.3965,-10.95178 -8.56938,-22.37657 -10.79158,-30.78924 -2.22221,-8.41267 -3.49219,-13.81026 -7.61816,-9.52507 -4.12596,4.2852 -11.11039,18.25207 -13.49126,32.85327 -2.38088,14.60122 -0.15683,29.8413 1.27128,39.36203 1.4281,9.52072 2.06231,13.32966 -1.58792,12.06048 -3.65021,-1.26917 -11.58506,-7.61729 -16.98133,-12.21999 -5.39626,-4.60268 -8.25464,-7.45813 -9.36556,2.06405 -1.11092,9.52217 -0.47446,31.42462 6.50875,53.32704 6.98322,21.90243 20.31357,43.80285 35.55058,57.92889 15.237,14.12605 32.37694,20.47523 48.24907,23.64959 15.87215,3.17438 30.47177,3.17267 43.32823,3.01394 12.85646,-0.15873 23.96536,-0.47443 27.13965,-0.15713 3.17431,0.3173 -1.58666,1.26902 -9.1251,3.17344 -7.53845,1.90442 -17.85691,4.76112 -26.3469,8.41091 -8.48998,3.64979 -15.16288,8.09791 -19.20726,11.03203 -4.0444,2.93412 -5.47237,4.36243 -1.02845,3.96621 4.44391,-0.39623 14.7558,-2.61686 21.42367,-3.72814 6.66786,-1.11128 9.68557,-1.11235 7.70147,-0.0809 -1.98409,1.03141 -8.96927,3.09588 -16.65518,5.9493 -7.68591,2.85342 -16.0766,6.49748 -23.6377,12.02239 -7.56108,5.52491 -14.29761,12.93363 -20.35711,19.77863 -6.05953,6.84499 -11.44674,13.12945 -21.77125,23.56627 -10.32451,10.43681 -25.58833,25.02974 -39.16681,37.48605 -13.57848,12.45633 -25.47477,22.77986 -35.60057,35.54344 -10.12581,12.76355 -18.48588,27.97605 -22.82112,37.00277 -4.33524,9.02673 -4.65313,11.88315 -1.95454,10.53448 2.69861,-1.34867 8.4075,-6.89995 12.37712,-10.47258 3.96964,-3.57263 6.19404,-5.16202 3.65433,-1.27366 -2.53971,3.88836 -9.84279,13.25374 -17.61935,24.68043 -7.77656,11.42669 -16.03027,24.91924 -23.80672,38.25026 -7.77644,13.331 -15.07784,26.50635 -20.83087,39.44058 -5.75304,12.93422 -9.95994,25.6308 -12.539,39.20014 -2.57908,13.56935 -3.53125,28.01289 -2.85681,43.56629 0.67444,15.55342 2.97695,32.22331 4.68278,42.06171 1.70584,9.83842 2.81605,12.85336 3.88765,9.99646 1.07158,-2.85693 2.10277,-11.58606 3.571,-20.6333 1.46822,-9.04724 3.3723,-18.40779 5.23748,-26.10644 1.86517,-7.69867 3.68942,-13.72499 4.9994,-17.89313 1.31,-4.16808 2.1048,-6.47011 2.34259,-1.66886 0.23779,4.80127 -0.0808,16.70455 1.46649,31.18681 1.54734,14.48225 4.96063,31.54409 9.44413,46.30407 4.48348,14.75997 10.03881,27.22123 13.80789,35.19584 3.76909,7.97463 5.75229,11.46623 6.38734,9.24416 0.63505,-2.22208 -0.0777,-10.15802 -0.32852,-19.48818 -0.25077,-9.33017 -0.0384,-20.05201 0.40471,-29.00611 0.44306,-8.95411 1.11637,-16.1327 1.90215,-21.63317 0.78582,-5.50046 1.68377,-9.31649 2.35687,-6.73492 0.6731,2.58158 1.12178,11.55966 2.58065,23.1187 1.45886,11.55905 3.92776,25.69855 8.86561,41.97125 4.93787,16.27271 12.34559,34.67864 20.53806,50.05363 8.19249,15.37499 17.16891,27.72033 22.78065,34.79114 5.61175,7.0708 7.85524,8.86554 8.19189,5.83503 0.33665,-3.03052 -1.23423,-10.8851 -2.46875,-20.08811 -1.23452,-9.20303 -2.13207,-19.75152 -2.46876,-28.50617 -0.3367,-8.75466 -0.1114,-15.70976 0.44995,-20.87373 0.56134,-5.16398 1.45973,-8.53028 3.0306,-2.13308 1.57086,6.39719 3.81447,22.55782 7.63005,37.48368 3.81556,14.92586 9.20294,28.61761 17.20511,43.28537 8.00217,14.66776 18.62005,30.31154 29.32512,43.37108 10.70506,13.05951 21.48293,23.52125 27.442,28.36805 5.95909,4.8467 7.06978,4.0542 6.03738,-1.8975 -1.03239,-5.9516 -4.20568,-17.06054 -6.42781,-26.42532 -2.22213,-9.36479 -3.49233,-16.98072 -4.68278,-23.64721 -1.19045,-6.6665 -2.30041,-12.37698 -2.6973,-16.50521 -0.39691,-4.1282 -0.0784,-6.66702 1.58791,-2.54017 1.66625,4.12686 4.68041,14.91716 9.6798,25.39225 4.9994,10.4751 11.98334,20.63465 22.06169,31.18912 10.07836,10.55454 23.25128,21.50424 36.34572,28.88464 13.09444,7.3805 26.10427,11.188 34.2793,13.6484 8.17502,2.4605 11.50854,3.5721 11.03203,0.8737 -0.47652,-2.6983 -4.76187,-9.2048 -8.01573,-14.7601 -3.25384,-5.5554 -5.47367,-10.1574 -6.82301,-14.2055 -1.34932,-4.0481 -1.82618,-7.5401 -0.87369,-6.8254 0.95223,0.7146 3.33291,5.6365 8.09427,12.858 4.76138,7.2215 11.90229,16.743 22.21883,26.0279 10.31651,9.2849 23.80701,18.3317 37.53604,25.6326 13.72902,7.301 27.69361,12.8548 41.33085,16.8648 13.63722,4.0099 26.93475,6.4719 34.37927,7.649 7.44452,1.1772 9.01507,1.0662 6.60161,-1.5712 -2.41347,-2.6372 -8.80979,-7.799 -15.15059,-13.4103 -6.34081,-5.6113 -12.62507,-11.6722 -17.61936,-17.2837 -4.99429,-5.6115 -8.69798,-10.7733 -12.17714,-16.0481 -3.47915,-5.2749 -6.73268,-10.6609 -8.97751,-15.5434 -2.24483,-4.8826 -3.47919,-9.2591 -2.74968,-8.7538 0.72951,0.5055 3.4224,5.8908 7.68719,11.0535 4.26479,5.1627 10.09901,10.1007 18.74065,15.8243 8.64164,5.7238 20.08924,12.2336 29.06801,16.779 8.97875,4.5455 15.48511,7.1255 20.03097,8.9775 4.54585,1.852 7.12836,2.9734 7.01584,1.1214 -0.1125,-1.8521 -2.91894,-6.6756 -5.16369,-11.2773 -2.24473,-4.6017 -3.92743,-8.9772 -4.82561,-12.1772 -0.8982,-3.1999 -1.00922,-5.2194 0.95465,-2.6377 1.96387,2.5816 6.00319,9.7632 12.23189,17.2266 6.22869,7.4632 14.64591,15.2063 24.07336,21.5474 9.42744,6.3411 19.85549,11.2764 25.86361,13.8032 6.00813,2.5266 7.57989,2.6383 5.83978,-0.3357 -1.74008,-2.9741 -6.78958,-9.0346 -10.71778,-14.5341 -3.92819,-5.4994 -6.73445,-10.4368 -8.81086,-15.4315 -2.07641,-4.9947 -3.42228,-10.0426 -4.5447,-14.3079 -1.12242,-4.2651 -2.01916,-7.7433 -1.1213,-7.4062 0.89786,0.3371 3.59049,4.4883 8.5847,9.7632 4.99422,5.2748 12.28952,11.6705 18.85492,17.0574 6.5654,5.387 12.39586,9.7619 16.43855,11.4464 4.04267,1.6844 6.28766,0.6748 9.2608,2.5829 2.97315,1.9082 6.67715,6.7337 8.6966,10.7726 2.01946,4.0389 2.35728,7.2952 4.48994,3.8163 2.13265,-3.479 6.05961,-13.6909 8.1919,-23.6235 2.13228,-9.9326 2.46806,-19.5834 2.69253,-27.2158 0.22449,-7.6325 0.3373,-13.2404 0.56184,-17.4503 0.22456,-4.2099 0.56045,-7.0154 2.29974,-3.3115 1.73929,3.7038 4.88254,13.9175 6.17308,23.3995 1.29053,9.4821 0.72865,18.2397 0.22377,24.3543 -0.50485,6.1146 -0.95168,9.5924 1.18082,6.1136 2.13251,-3.4788 6.84498,-13.9138 9.08941,-24.5756 2.24443,-10.662 2.02051,-21.547 1.06654,-35.6316 -0.95397,-14.0847 -2.63846,-31.36684 -3.98525,-45.7326 -1.34678,-14.36577 -2.35543,-25.81422 -1.62599,-28.28239 0.72944,-2.46817 3.19679,4.04119 6.17069,10.88681 2.97391,6.84563 6.45361,14.0302 9.82028,20.5952 3.36666,6.56494 6.62107,12.51124 7.9681,11.78194 1.34704,-0.7294 0.78562,-8.1353 -1.17843,-18.74065 -1.96403,-10.60545 -5.33146,-24.40843 -9.31556,-35.7434 -3.98412,-11.33498 -8.584,-20.20085 -12.85801,-27.11585 -4.27402,-6.915 -8.21933,-11.87848 -10.2726,-16.3457 -2.05328,-4.46722 -2.21317,-8.43443 2.23069,-3.99 4.44386,4.44442 13.49075,17.30178 19.99764,31.26774 6.5069,13.96595 10.47523,29.0436 13.33176,39.43821 2.85653,10.3946 4.60313,16.1077 6.82539,10.63207 2.22225,-5.4756 4.92023,-22.13937 3.57101,-39.83577 -1.34922,-17.6964 -6.74448,-36.42375 -16.02906,-53.88174 -9.28459,-17.45801 -22.45759,-33.64593 -32.61521,-46.02554 -10.15762,-12.3796 -17.30027,-20.9498 -26.10883,-32.13907 -8.80856,-11.18924 -19.28351,-24.99793 -30.71066,-38.01217 -11.42715,-13.01426 -23.80593,-25.23513 -31.0273,-32.37714 -7.22138,-7.14202 -9.2856,-9.2044 -13.33177,-8.88706 -4.04615,0.31735 -10.07928,3.01623 -18.25261,4.92086 -8.17331,1.90461 -18.48924,3.01538 -29.59889,2.14259 -11.10965,-0.87277 -23.01351,-3.7304 -33.72697,-9.92026 -10.71346,-6.18984 -20.23444,-15.71088 -26.50402,-25.55174 -6.26959,-9.84087 -9.28612,-19.99766 -11.03203,-30.15598 -1.74591,-10.15829 -2.2212,-20.31129 -2.22118,-27.0587 3e-5,-6.74743 0.47552,-10.08169 1.26891,-6.82778 0.79337,3.25392 1.90621,13.09469 4.12807,23.96622 2.22188,10.87153 5.55463,22.7737 13.56984,33.16991 8.01519,10.39621 20.71072,19.28451 31.42487,24.36379 10.71415,5.0793 19.44129,6.34789 28.80613,5.31604 9.36483,-1.03184 19.36028,-4.36238 26.50402,-6.823 7.14374,-2.46063 11.42768,-4.04919 17.77647,-7.62054 6.34879,-3.57132 14.75958,-9.1246 23.33058,-15.55292 8.57101,-6.42832 17.29769,-13.72704 23.72578,-22.45687 6.42809,-8.72985 10.5549,-18.88592 13.96741,-28.80614 3.41251,-9.92021 6.11126,-19.60204 7.06345,-29.12513 0.95218,-9.52309 0.15708,-18.88642 -3.89002,-27.21823 -4.0471,-8.3318 -11.34707,-15.63227 -16.02907,-20.31427 -4.68198,-4.68198 -6.74463,-6.74411 -7.85622,-8.80848 -1.11157,-2.06437 -1.26884,-4.12714 -1.74502,-7.5396 -0.47619,-3.41244 -1.27048,-8.17394 -4.20665,-14.04595 -2.93617,-5.87202 -8.01606,-12.85517 -15.39581,-19.36201 -7.37975,-6.50684 -17.06052,-12.5385 -25.63032,-16.90278 -8.56978,-4.36426 -16.03037,-7.06209 -20.47376,-8.88704 -4.44339,-1.82493 -5.87277,-2.77877 -1.90455,-3.89001 3.96823,-1.11124 13.3312,-2.37984 23.09252,-3.41151 9.76133,-1.03167 19.91576,-1.82593 28.24905,-2.30211 8.33329,-0.47618 14.83872,-0.63491 19.99764,-0.47613 5.15893,0.15876 8.96863,0.63477 13.88884,1.66647 4.92022,1.0317 10.951,2.61944 16.42664,4.68278 5.47564,2.06333 10.39692,4.60295 13.49128,6.66589 3.09434,2.06292 4.36209,3.64902 4.52088,1.82358 0.1588,-1.82544 -0.79267,-7.06216 -4.12571,-13.64838 -3.33293,-6.58625 -9.04673,-14.52156 -17.14083,-22.45688 -8.09406,-7.93533 -18.5707,-15.8715 -28.72756,-21.42604 -10.15685,-5.55456 -20.00345,-8.73119 -25.55413,-10.39641 -5.55069,-1.66521 -6.82068,-1.82385 -3.96382,-4.1257 2.85686,-2.30186 9.83857,-6.74624 13.72696,-12.93657 3.88836,-6.19033 4.68114,-14.12463 5.31604,-21.66412 0.63489,-7.5395 1.11065,-14.67865 2.1426,-20.31426 1.03195,-5.63562 2.6189,-9.75759 3.73052,-12.77469 1.11154,-3.0171 1.74618,-4.92314 -2.69731,-4.76372 -4.4435,0.15941 -13.96933,2.38176 -20.15715,3.49244 -6.18782,1.11068 -9.04533,1.11171 -7.93478,-3.33294 1.11055,-4.44464 6.18984,-13.33051 8.57042,-22.21881 2.38057,-8.88829 2.06164,-17.77362 2.06167,-24.59948 10e-6,-6.82586 0.31913,-11.58901 -4.75897,-11.90574 -5.0781,-0.31674 -15.55851,3.81249 -22.3807,6.66826 -6.82218,2.85578 -9.99705,4.44168 -11.26772,1.90216 -1.27067,-2.53953 -0.63552,-9.20508 -1.11177,-17.14084 -0.47626,-7.93575 -2.06154,-17.13888 -3.96621,-24.9161 -1.90466,-7.77724 -4.12747,-14.12844 -6.66588,-15.2387 -2.53839,-1.11024 -5.39745,3.01658 -10.15832,7.77766 -4.76087,4.76109 -11.4295,10.15945 -16.34807,13.96741 -4.91857,3.80794 -8.09093,6.02994 -10.94871,4.1257 -2.85779,-1.90423 -5.39689,-7.93436 -7.77765,-16.02906 -2.38077,-8.09471 -4.60258,-18.25013 -5.71362,-27.45629 -1.11104,-9.20617 -1.11281,-17.45767 -0.31901,-23.96623 0.7938,-6.50856 2.38127,-11.27062 -1.26891,-9.84169 -3.65006,1.42892 -12.53849,9.04799 -19.99762,18.72875 -7.45918,9.68075 -13.49372,21.43182 -16.98372,28.57043 -3.49001,7.13861 -4.44271,9.67999 -6.98251,7.45865 -2.53979,-2.22134 -6.66519,-9.20399 -10.31545,-18.88587 -3.65052,-9.68188 -6.82535,-22.06081 -8.2538,-33.96504 -1.42844,-11.90425 -1.1096,-23.32991 -0.15712,-32.06052 0.95249,-8.73058 2.53902,-14.76075 -1.4284,-13.80789 -3.96743,0.95286 -13.49059,8.88844 -20.94991,19.99765 -7.45934,11.1092 -12.8558,25.39645 -15.71244,36.50521 -2.85662,11.10878 -3.1742,19.04316 -4.2852,22.05931 -1.11101,3.01615 -3.01697,1.11201 -6.9849,-5.07798 -3.96793,-6.18996 -9.99706,-16.66338 -14.91729,-28.88468 -4.92023,-12.22131 -8.72886,-26.18686 -10.95109,-36.34572 -2.22222,-10.15886 -2.85793,-16.50978 -4.92086,-16.82659 z m -3.04249,32.27001 c 0.97247,-0.15417 2.29206,3.41558 4.45187,9.61077 2.35056,6.74256 4.87345,13.97019 8.82991,22.87826 3.08924,6.95555 6.10476,12.78404 9.0894,18.27165 4.29225,7.89213 7.07296,12.59361 6.13262,13.35319 -0.80795,0.65265 -5.28691,-2.72666 -10.93444,-10.2607 -3.79769,-5.06687 -7.56962,-11.33582 -10.74874,-18.49305 -4.00218,-9.0103 -6.27651,-17.66058 -7.2301,-24.58996 -0.93062,-6.76254 -0.4653,-10.63149 0.40948,-10.77016 z m 71.63442,4.35425 c 1.00143,0.12634 1.14673,4.27986 1.69027,11.42484 0.57593,7.5707 1.5234,16.29383 4.01619,26.42546 1.18792,4.82804 2.58278,9.37339 4.13761,13.71743 4.63598,12.95618 9.57998,21.62399 8.43949,22.42116 -0.96993,0.67799 -8.29821,-6.01199 -14.50781,-19.98335 -1.98634,-4.47068 -3.67021,-9.3284 -4.93514,-14.46734 -2.61631,-10.6292 -2.95965,-20.50127 -2.14736,-28.19907 0.79127,-7.4987 2.45727,-11.44632 3.30675,-11.33913 z M 334.31604,190.8245 v 0.002 c 0.0645,0.004 0.12603,0.0489 0.18807,0.0762 0.0513,0.0103 0.10702,0.0387 0.16427,0.069 1.10899,0.58772 3.32256,4.88734 7.12773,11.73672 4.50365,8.10669 10.00141,17.35002 17.77171,27.51342 4.33117,5.66506 8.71174,10.75067 13.11988,15.44103 10.62837,11.3098 18.98405,18.09854 18.23834,19.18346 -0.63855,0.92904 -10.36328,-3.30914 -22.70447,-14.66018 -4.91398,-4.52029 -9.75837,-9.76627 -14.27213,-15.66958 -7.99361,-10.45443 -13.42975,-20.98033 -16.69803,-29.71793 -0.1325,-0.35421 -0.23357,-0.66708 -0.3571,-1.00939 0.193,3.33555 0.32571,7.06543 0.39519,11.06773 0.0748,4.30338 0.0758,8.7153 -0.0357,12.40329 -0.21577,7.13271 -0.85123,11.59642 -2.09975,11.72006 -1.20588,0.11933 -2.85547,-4.13654 -3.93049,-11.36056 -0.56726,-3.81165 -0.92414,-8.14224 -1.00227,-12.63899 -0.23533,-13.54781 2.15114,-24.28113 4.09476,-24.15667 z m 237.891,18.14786 c 1.84908,0.0841 2.70828,14.87565 6.24927,30.45117 0.98628,4.33821 2.04842,8.34719 3.18535,12.2557 3.04464,10.46784 5.68272,17.19015 4.37091,17.89551 -1.10232,0.59273 -6.06764,-4.98935 -10.44401,-15.77434 -1.59821,-3.93918 -2.97038,-8.25051 -4.00667,-12.80801 -1.94517,-8.55462 -2.37492,-16.52229 -1.90454,-22.72589 0.4596,-6.06124 1.6606,-9.33457 2.54969,-9.29414 z m 57.81701,43.91863 c 0.86575,-0.26636 2.59465,1.95121 4.3352,6.454 1.77525,4.59257 3.23403,10.77629 3.70909,17.68839 0.37062,5.39264 0.0932,10.48345 -0.62374,14.83397 -1.10431,6.69775 -2.98255,10.35459 -4.05428,10.17974 -1.17629,-0.19187 -1.44582,-4.16445 -1.69266,-10.55588 -0.17573,-4.55091 -0.31041,-8.55193 -0.68325,-13.97455 -0.90361,-13.14241 -2.82475,-24.06129 -0.99036,-24.62567 z m 44.64473,46.04458 c 0.91198,0.0313 1.81167,2.38852 2.07118,6.66588 0.26412,4.35292 -0.19452,9.98081 -1.65693,15.92907 -0.70149,2.8532 -1.58467,5.58553 -2.59971,8.11334 -3.22549,8.03194 -7.02044,12.30467 -8.25141,11.71289 -1.347,-0.64754 0.0257,-5.98421 2.02834,-13.76742 0.67513,-2.62361 1.2652,-4.93307 1.95691,-7.74671 2.77819,-11.3008 4.5264,-20.97324 6.45162,-20.90705 z m 11.31535,57.4956 c 1.00623,-0.0147 1.97538,0.0464 2.87822,0.17855 3.26857,0.47894 5.07869,1.76242 5.03036,2.94965 -0.0498,1.22358 -1.91135,2.22149 -4.70896,3.01632 -1.5305,0.43492 -3.36252,0.81692 -5.15893,1.11177 -5.18182,0.85052 -9.98193,1.03807 -10.67016,-0.75944 -0.68728,-1.79496 3.23035,-5.18539 9.52507,-6.21831 1.0541,-0.17297 2.09814,-0.26384 3.1044,-0.27854 z m 0.93798,9.51793 c 0.83293,-0.19916 2.59939,2.20634 3.65908,7.27533 1.0825,5.17805 1.1092,12.04306 -1.07845,19.27154 -0.85094,2.81176 -1.97584,5.47179 -3.32103,7.92049 -2.69937,4.90572 -5.96327,8.42405 -8.64898,10.53448 -2.67542,2.10234 -4.51993,2.65208 -4.99941,2.13069 -1.00114,-1.08857 3.78965,-6.89574 7.63005,-15.65767 0.97493,-2.22058 1.83495,-4.53835 2.57114,-6.97537 1.91727,-6.34684 2.53373,-11.95487 2.86156,-16.84326 0.31025,-4.62638 0.3549,-7.42404 1.32604,-7.65623 z m -153.01769,18.21214 c 3.67719,-0.0188 7.25213,0.12221 10.62493,0.37852 8.99417,0.6835 16.5695,2.1991 23.19013,4.89228 6.62065,2.69319 12.28738,6.56391 15.31725,9.42508 3.02987,2.86117 3.42319,4.71429 0.0285,3.34009 -3.39459,-1.3742 -10.57558,-5.97694 -19.21679,-8.67041 -8.64121,-2.69349 -18.741,-3.47908 -30.41307,-2.35687 -11.67209,1.12222 -24.91502,4.15173 -37.82175,11.33438 -12.90672,7.18266 -25.47395,18.51789 -33.38653,32.32238 -7.91259,13.80449 -11.16624,30.07533 -11.61531,42.14028 -0.44905,12.06495 1.90725,19.91941 4.82563,24.80184 2.91838,4.88242 6.39772,6.79065 9.59649,7.35151 3.19878,0.56087 6.11553,-0.22628 8.24664,1.39984 2.13113,1.6261 3.47875,5.66997 4.71374,6.2302 1.23498,0.56051 2.35705,-2.35832 4.93752,-3.70432 2.58046,-1.346 6.62298,-1.12029 10.21307,2.13308 3.59008,3.2534 6.7335,9.53892 8.36092,11.05347 1.62742,1.51453 1.7391,-1.7395 2.86157,-4.5447 1.12239,-2.80521 3.25591,-5.16275 5.61124,-3.48054 2.35535,1.68219 4.93742,7.4094 6.11595,12.4033 1.17853,4.9939 0.95423,9.25881 3.19963,12.73897 2.24538,3.48017 6.95759,6.17132 11.16534,11.38913 4.20802,5.21781 7.9117,12.96238 10.82968,21.43558 2.91797,8.47317 5.04953,17.67623 5.72312,23.79243 0.67362,6.11619 -0.11043,9.14521 -0.84036,8.63945 -0.72989,-0.50575 -1.40349,-4.54478 -2.63778,-9.5941 -1.23431,-5.04933 -3.02917,-11.11145 -5.16131,-17.78838 -2.13213,-6.67693 -4.60224,-13.97111 -9.03465,-20.14287 -4.4324,-6.17174 -10.8307,-11.22247 -14.4221,-15.82432 -3.59141,-4.60186 -4.37703,-8.75499 -5.01608,-11.62483 -0.63906,-2.86982 -1.13194,-4.45794 -1.69504,-4.57802 -0.56308,-0.12006 -1.19754,1.23008 -2.19021,3.29484 -0.99268,2.06477 -2.34119,4.84014 -4.78277,3.25201 -2.44159,-1.58814 -5.96942,-7.53832 -8.80611,-11.32725 -2.8367,-3.78892 -4.97914,-5.41622 -7.2801,-4.8018 -2.30095,0.61439 -4.76133,3.47136 -6.64683,4.34471 -1.88551,0.87336 -3.19546,-0.23701 -4.54471,-1.80454 -1.34924,-1.56754 -2.73628,-3.59107 -5.53268,-4.82086 -2.79638,-1.22981 -7.00279,-1.66513 -11.64625,-4.00668 -4.64343,-2.34154 -9.72097,-6.58581 -12.55803,-12.85562 -2.83707,-6.26981 -3.43377,-14.56307 -3.77099,-22.59733 -0.33722,-8.03429 -0.41658,-15.81237 2.1426,-25.23513 2.55918,-9.42276 7.75819,-20.49437 15.39581,-30.4726 7.63761,-9.97823 17.71828,-18.86735 27.5777,-24.99705 9.85943,-6.12969 19.50039,-9.50289 29.52747,-11.26297 6.26693,-1.10005 12.68581,-1.57097 18.81446,-1.60218 z m 130.25132,41.6927 c 0.0753,0.0148 0.0379,0.16042 -0.019,0.3952 -0.15186,0.62604 -0.45403,1.88022 -2.01406,3.75669 -1.56004,1.87648 -4.38,4.37785 -8.44662,5.86598 -4.06662,1.48812 -9.38511,1.96331 -13.27225,2.22117 -3.88712,0.25783 -6.34531,0.29823 -6.6635,0.57612 -0.31819,0.27789 1.50592,0.79377 3.09249,1.90453 1.58657,1.11077 2.93739,2.81645 2.16404,5.33508 -0.77336,2.51866 -3.67156,5.85329 -7.77766,8.2538 -4.10611,2.4005 -9.42913,3.87097 -12.61994,4.66373 -3.1908,0.79277 -4.26321,0.91081 -3.72813,1.58553 0.53507,0.67472 2.68116,1.90577 3.21628,3.69005 0.53513,1.78426 -0.53705,4.12774 -2.30211,6.34925 -1.76506,2.22151 -4.22957,4.32693 -6.01357,5.81359 -1.78399,1.48668 -2.89469,2.35872 -1.94263,2.35926 0.95206,5.2e-4 3.96815,-0.87219 7.06346,-1.26891 3.09529,-0.39671 6.26707,-0.31732 9.07035,0.34282 2.8033,0.66014 5.23855,1.90171 5.05178,2.29735 -0.18676,0.39563 -2.99498,-0.055 -6.75396,0.0571 -3.75898,0.11213 -8.47345,0.78624 -13.29843,1.85215 -4.82497,1.06594 -9.76078,2.52495 -10.60352,1.68314 -0.84273,-0.8418 2.40981,-3.9824 5.60888,-7.12535 3.19904,-3.14294 6.34061,-6.28291 7.85621,-8.5847 1.51559,-2.30179 1.40253,-3.76126 -1.29033,-4.88276 -2.69285,-1.12147 -7.96493,-1.90834 -7.6848,-2.91869 0.28011,-1.01036 6.11357,-2.24372 11.38913,-3.75908 5.27555,-1.51538 9.98713,-3.31018 13.57935,-5.49935 3.59223,-2.1892 6.06161,-4.77059 5.27557,-6.78968 -0.78605,-2.0191 -4.82747,-3.47738 -8.41805,-4.59946 -3.5906,-1.12207 -6.73269,-1.90915 -1.90693,-2.69492 4.82578,-0.78577 17.61504,-1.57105 25.866,-3.42341 8.25096,-1.85236 11.95446,-4.76943 13.80552,-6.22783 1.15691,-0.91152 1.59084,-1.25308 1.71646,-1.22843 z m -115.97204,2.80444 c 0.99503,0.0567 1.9826,0.11603 2.84728,0.19045 4.38403,0.37696 6.88303,0.93348 8.19189,2.26163 1.30885,1.32816 1.48901,4.19847 1.52839,6.38735 0.0692,3.85104 -0.51577,7.90494 -2.28307,11.32723 -1.60762,3.1131 -4.22945,5.79942 -7.19915,7.65863 -3.46445,2.16896 -7.62444,3.42965 -11.70576,3.65195 -3.95014,0.21516 -8.08604,-0.55835 -11.64625,-2.28308 -3.18222,-1.54162 -6.10169,-3.95564 -8.0538,-6.90394 -1.95361,-2.95054 -2.71162,-6.615 -3.21391,-10.11785 -0.3718,-2.59291 -0.11031,-6.33723 0.17854,-7.85621 0.22362,-1.17586 0.02,-1.56556 2.89727,-2.12119 1.73391,-0.33482 3.55679,-0.74533 6.80635,-1.21891 -2.55432,2.34749 -2.35286,9.52135 -0.41424,13.05324 2.45749,4.47697 7.81164,7.46732 13.50555,7.23485 4.50759,-0.18403 9.25548,-3.16061 11.00348,-7.17535 1.90271,-4.37007 0.7331,-11.68002 -2.44257,-14.0888 z m -146.24467,46.54689 c 1.09328,-0.0447 1.55311,0.51222 1.20223,1.70456 -1.12285,3.81549 -10.55064,14.14073 -24.35427,31.98432 -13.80363,17.8436 -31.98521,43.20829 -45.45178,65.42801 -13.46658,22.21972 -22.22085,41.30046 -28.05623,56.67428 -5.83537,15.3738 -8.75313,27.04609 -11.22248,27.0468 -2.46935,7.1e-4 -4.48867,-11.67059 -4.15189,-31.3106 0.33677,-19.63999 3.02805,-47.24593 6.95632,-67.78486 3.92827,-20.53893 9.09231,-34.00631 12.23427,-37.82173 3.14196,-3.81543 4.26284,2.02055 2.91633,13.57934 -1.34651,11.55881 -5.16157,28.84498 -7.51816,42.53548 -2.3566,13.69048 -3.25446,23.79053 -0.1119,21.09751 3.14256,-2.69302 10.32427,-18.18009 19.1906,-33.55556 8.86631,-15.37564 19.41334,-30.63627 30.74876,-45.00185 11.33541,-14.36559 23.45518,-27.83116 33.10801,-35.91244 6.63628,-5.55587 12.10494,-8.56478 14.51019,-8.66326 z m 22.86873,23.51151 c 0.13127,-0.0222 0.25323,-0.0231 0.36662,0 0.41864,0.0852 0.71226,0.48077 0.84751,1.21415 0.72142,3.91129 -3.02576,17.38149 -7.28246,39.5358 -4.2567,22.15433 -9.02392,52.99851 -11.00347,78.905 -1.97956,25.90648 -1.17289,46.88343 0.56421,63.23539 1.73712,16.35203 4.40497,28.08306 2.20213,29.19895 -2.20283,1.11591 -9.27578,-8.3863 -17.84551,-26.06121 -8.56975,-17.67491 -18.63524,-43.51969 -24.40665,-63.6187 -5.77142,-20.099 -7.246,-34.44602 -6.16594,-39.26917 1.08005,-4.82316 4.71561,-0.12218 8.73468,10.79871 4.01907,10.92092 8.42267,28.06615 12.50329,41.34513 4.08063,13.279 7.83993,22.696 9.42746,18.87397 1.58752,-3.82201 1.00016,-20.88245 1.96644,-38.60498 0.96627,-17.7225 3.48568,-36.10234 7.11107,-54.03886 3.62535,-17.93651 8.35505,-35.42235 13.31748,-46.99208 3.77996,-8.81287 7.69395,-14.18871 9.66314,-14.5221 z m -83.04498,124.34726 c 0.6782,-0.0947 1.09884,0.32815 1.18319,1.31889 0.3374,3.96293 -4.70168,17.0057 -11.09393,38.64068 -6.39225,21.63498 -14.13774,51.86662 -18.62875,77.45754 -4.49101,25.59093 -5.72992,46.54914 -5.5922,62.99257 0.13773,16.44343 1.65103,28.37649 -0.64992,29.27275 -2.30098,0.89624 -8.4152,-9.24803 -15.2244,-27.67294 -6.8092,-18.42492 -14.31198,-45.12704 -18.10025,-65.69226 -3.78827,-20.56521 -3.86064,-34.98593 -2.31639,-39.68103 1.54424,-4.69516 4.70701,0.33611 7.64433,11.59625 2.93733,11.26016 5.64891,28.75101 8.41807,42.36406 2.76911,13.61303 5.59483,23.35185 7.54672,19.70244 1.95189,-3.64941 3.02979,-20.68681 5.71599,-38.23121 2.68619,-17.5444 6.98076,-35.59036 12.33428,-53.08898 5.35349,-17.49862 11.76416,-34.44126 17.82884,-45.47321 4.5485,-8.27397 8.89981,-13.22154 10.93442,-13.50555 z m 133.37476,7.31818 c 0.42342,-0.0569 0.8313,0.22302 1.19985,0.87132 1.96567,3.45759 2.84823,17.4097 6.10166,39.73341 3.25345,22.32372 8.87851,53.02299 15.51485,78.14317 6.63632,25.1202 14.28529,44.6703 21.29511,59.54537 7.00982,14.87507 13.38205,25.07667 11.66766,26.85397 -1.7143,1.77733 -11.51565,-4.87371 -25.41366,-18.75493 -13.89801,-13.88121 -31.88933,-34.98747 -43.94006,-52.0772 -12.05074,-17.08971 -18.15577,-30.15691 -18.71922,-35.06729 -0.56346,-4.91037 4.41421,-1.66573 11.79622,7.33009 7.38202,8.99583 17.16832,23.7453 25.38273,34.94826 8.21441,11.20298 14.85839,18.86297 15.10298,14.73161 0.24458,-4.13138 -5.90909,-20.05268 -10.81539,-37.10992 -4.9063,-17.05725 -8.56239,-35.24457 -11.02727,-53.37704 -2.46488,-18.13246 -3.73816,-36.20327 -2.84967,-48.76093 0.72191,-10.20309 2.86941,-16.76309 4.70421,-17.00989 z m -84.49718,91.81537 c 0.42688,0.017 0.77985,0.36192 1.03082,1.06415 1.33854,3.74527 -0.2035,17.6428 -0.85704,40.19289 -0.65352,22.55008 -0.41919,53.75627 1.77598,79.64537 2.19518,25.88912 6.35077,46.46806 10.68446,62.33076 4.33362,15.86269 8.84725,27.01377 6.85158,28.46807 -1.99568,1.45431 -10.50038,-6.78976 -21.79029,-22.86398 -11.28993,-16.07421 -25.36334,-39.97547 -34.2793,-58.89067 -8.91595,-18.9152 -12.67075,-32.84025 -12.37711,-37.77412 0.29363,-4.93387 4.63727,-0.87542 10.35354,9.2608 5.71626,10.13624 12.80733,26.35332 18.96205,38.80734 6.15471,12.45403 11.3746,21.14635 12.32951,17.11941 0.95488,-4.02693 -2.35774,-20.77078 -4.24237,-38.41928 -1.88463,-17.6485 -2.34139,-36.19606 -1.63552,-54.48167 0.70588,-18.28561 2.57541,-36.30294 5.62077,-48.51809 2.47435,-9.92482 5.72307,-16.01499 7.57292,-15.94098 z m 176.95057,3.04249 c 0.23124,0.0461 0.47833,0.21292 0.738,0.51185 2.07741,2.3915 4.95801,13.1489 11.0011,30.07026 6.04307,16.92138 15.24988,40.00933 24.37331,58.58358 9.12342,18.57425 18.16551,32.64123 25.97313,43.15681 7.80761,10.5156 14.38441,17.4838 13.32462,19.14061 -1.05979,1.65682 -9.75736,-1.9995 -22.78779,-10.65827 -13.03042,-8.65877 -30.39171,-22.31819 -42.48308,-33.77221 -12.09139,-11.45401 -18.90864,-20.6988 -20.11906,-24.44474 -1.21044,-3.74593 3.18726,-1.99295 10.36305,3.87335 7.1758,5.86629 17.13207,15.84761 25.30416,23.30679 8.17211,7.45916 14.56034,12.39663 14.10311,9.13226 -0.45722,-3.26445 -7.76231,-14.73051 -14.26974,-27.28013 -6.50744,-12.54963 -12.21401,-26.17778 -16.98372,-39.95006 -4.76972,-13.77226 -8.59853,-27.68365 -9.87503,-37.62889 -1.11693,-8.70209 -0.28079,-14.36362 1.33794,-14.04121 z m 40.16669,32.66044 c 2.17701,0.13147 6.51748,1.85379 11.86528,5.12082 8.55646,5.22728 19.6878,14.40389 30.31071,24.38285 10.6229,9.97895 20.73274,20.75672 29.52985,31.82244 8.79711,11.06572 16.28099,22.41551 19.07394,24.1662 2.79296,1.75069 0.89485,-6.09679 -2.57588,-16.60281 -3.47074,-10.50601 -8.51548,-23.67158 -10.93919,-32.61758 -2.42371,-8.94601 -2.2273,-13.67643 0.69754,-11.04156 2.92483,2.63487 8.57724,12.63389 14.09358,28.34904 5.51633,15.71516 10.89327,37.14178 13.4746,52.57237 2.58132,15.4306 2.36655,24.86117 0.42137,25.15181 -1.94519,0.29064 -5.62008,-8.55689 -12.02953,-19.9786 -6.40945,-11.42172 -15.55452,-25.41893 -28.78232,-41.33322 -13.22782,-15.9143 -30.54144,-33.75041 -43.51869,-46.17789 -12.97722,-12.4275 -21.62003,-19.44817 -22.95444,-22.32118 -0.50039,-1.07739 0.027,-1.57156 1.33318,-1.49269 z m -159.37646,60.98092 c 0.29473,0.0279 0.62539,0.20741 0.98799,0.54755 2.90078,2.72105 7.87466,15.78696 17.5884,36.14812 9.71374,20.36116 24.17049,48.01995 37.94316,70.05126 13.77262,22.03132 26.86449,38.44286 37.96218,50.57738 11.09768,12.13454 20.20221,19.99481 19.09062,22.19971 -1.11161,2.20504 -12.43941,-1.2472 -29.82269,-10.39399 -17.38327,-9.14681 -40.81789,-23.98498 -57.38609,-36.74326 -16.5682,-12.75827 -26.26727,-23.43251 -28.25857,-27.95623 -1.9913,-4.52372 3.72546,-2.89695 13.43889,3.51149 9.71342,6.40845 23.42709,17.60034 34.58878,25.87076 11.16168,8.27043 19.7748,13.61998 18.78588,9.60125 -0.98892,-4.01872 -11.58003,-17.40476 -21.31416,-32.2462 -9.73413,-14.84142 -18.60762,-31.13437 -26.32785,-47.72532 -7.72023,-16.59096 -14.28539,-33.47455 -17.15273,-45.73271 -2.50893,-10.72589 -2.18685,-17.90532 -0.12381,-17.70981 z m 107.68969,43.63057 c 0.29602,-0.005 0.64528,0.13701 1.04274,0.43565 3.17973,2.38916 9.5443,14.83931 21.41652,34.02218 11.87226,19.18289 29.25344,45.10288 45.34228,65.5042 16.08884,20.40132 30.88998,35.29012 43.24253,46.14446 12.35254,10.8545 22.26007,17.6777 21.39509,19.9905 -0.86498,2.3129 -12.50411,0.1131 -30.7797,-7.0872 -18.2756,-7.2004 -43.18437,-19.4007 -61.04281,-30.27974 -17.85846,-10.87908 -28.66019,-20.43365 -31.13205,-24.71374 -2.47185,-4.2801 3.38799,-3.28478 13.74124,2.02833 10.35325,5.3131 25.20243,14.94579 37.198,21.95221 11.99558,7.0064 21.13958,11.38624 19.7191,7.4991 -1.42047,-3.8872 -13.40534,-16.04088 -24.69709,-29.73461 -11.29171,-13.69374 -21.8875,-28.92363 -31.36773,-44.5757 -9.48022,-15.65207 -17.84141,-31.71926 -22.02597,-43.59248 -3.66149,-10.38908 -4.12422,-17.56295 -2.05215,-17.59316 z m 86.92071,36.32428 c 2.17702,0.13147 6.51749,1.85378 11.86528,5.12083 8.55646,5.22726 19.6878,14.40388 30.31071,24.38284 10.6229,9.97896 20.73274,20.75672 29.52986,31.82243 8.7971,11.06573 16.28098,22.41551 19.07393,24.1662 2.79296,1.75069 0.89485,-6.09678 -2.57588,-16.60279 -3.47073,-10.50602 -8.51547,-23.67158 -10.93919,-32.6176 -2.42371,-8.946 -2.22729,-13.67642 0.69754,-11.04155 2.92483,2.63487 8.57725,12.6339 14.09358,28.34904 5.51633,15.71516 10.89327,37.14174 13.4746,52.57231 2.58133,15.4306 2.36656,24.8612 0.42138,25.1518 -1.94519,0.2907 -5.62009,-8.5569 -12.02954,-19.9786 -6.40945,-11.42164 -15.55452,-25.41886 -28.78232,-41.33315 -13.22781,-15.9143 -30.54144,-33.7504 -43.51868,-46.1779 -12.97723,-12.4275 -21.62004,-19.44816 -22.95444,-22.32118 -0.5004,-1.07737 0.027,-1.57155 1.33317,-1.49268 z"
       style="fill:#1a1a1a;fill-opacity:1;stroke:none;stroke-width:1.2189039px;stroke-linecap:butt;stroke-linejoin:miter;stroke-opacity:1" />
  </g>
</svg>
